<?xml version="1.0" encoding="UTF-8"?>
<svg xmlns="http://www.w3.org/2000/svg" xmlns:xlink="http://www.w3.org/1999/xlink" viewBox="0 0 60 60" width="60px" height="60px">
<g id="surface64021410">
<path style=" stroke:none;fill-rule:nonzero;fill:rgb(18.82353%,18.82353%,18.82353%);fill-opacity:1;" d="M 54.328125 2.789062 C 54.101562 2.539062 53.78125 2.398438 53.441406 2.398438 L 6.558594 2.398438 C 6.21875 2.398438 5.898438 2.539062 5.671875 2.789062 C 5.441406 3.039062 5.328125 3.371094 5.363281 3.707031 L 9.585938 51.019531 C 9.628906 51.515625 9.976562 51.929688 10.453125 52.070312 L 29.667969 57.554688 C 29.769531 57.585938 29.882812 57.601562 29.996094 57.601562 C 30.109375 57.601562 30.214844 57.585938 30.324219 57.554688 L 49.550781 52.070312 C 50.03125 51.929688 50.371094 51.515625 50.417969 51.019531 L 54.636719 3.707031 C 54.671875 3.371094 54.558594 3.039062 54.328125 2.789062 Z M 44.21875 19.101562 L 21.640625 19.101562 L 22.179688 25.210938 L 43.671875 25.210938 L 42.0625 43.261719 L 29.992188 46.90625 L 29.875 46.871094 L 17.945312 43.257812 L 17.292969 35.902344 L 23.136719 35.902344 L 23.390625 38.757812 L 30.0625 40.152344 L 36.609375 38.757812 L 37.308594 31.03125 L 16.855469 31.03125 L 15.265625 13.265625 L 44.738281 13.265625 Z M 44.21875 19.101562 "/>
</g>
</svg>
