<?xml version="1.0" encoding="UTF-8"?>
<svg xmlns="http://www.w3.org/2000/svg" xmlns:xlink="http://www.w3.org/1999/xlink" viewBox="0 0 60 60" width="40px" height="40px">
<g id="surface40286788">
<path style=" stroke:none;fill-rule:nonzero;fill:rgb(18.82353%,18.82353%,18.82353%);fill-opacity:1;" d="M 49.199219 4.800781 L 10.800781 4.800781 C 7.488281 4.800781 4.800781 7.488281 4.800781 10.800781 L 4.800781 49.199219 C 4.800781 52.511719 7.488281 55.199219 10.800781 55.199219 L 49.199219 55.199219 C 52.511719 55.199219 55.199219 52.511719 55.199219 49.199219 L 55.199219 10.800781 C 55.199219 7.488281 52.511719 4.800781 49.199219 4.800781 Z M 20.398438 24 L 20.398438 46.800781 L 13.199219 46.800781 L 13.199219 24 Z M 13.199219 17.363281 C 13.199219 15.683594 14.640625 14.398438 16.800781 14.398438 C 18.960938 14.398438 20.316406 15.683594 20.398438 17.363281 C 20.398438 19.042969 19.054688 20.398438 16.800781 20.398438 C 14.640625 20.398438 13.199219 19.042969 13.199219 17.363281 Z M 46.800781 46.800781 L 39.601562 46.800781 C 39.601562 46.800781 39.601562 35.6875 39.601562 34.800781 C 39.601562 32.398438 38.398438 30 35.398438 29.953125 L 35.304688 29.953125 C 32.398438 29.953125 31.199219 32.425781 31.199219 34.800781 C 31.199219 35.890625 31.199219 46.800781 31.199219 46.800781 L 24 46.800781 L 24 24 L 31.199219 24 L 31.199219 27.070312 C 31.199219 27.070312 33.515625 24 38.171875 24 C 42.9375 24 46.800781 27.277344 46.800781 33.910156 Z M 46.800781 46.800781 "/>
</g>
</svg>
