<?xml version="1.0" encoding="UTF-8"?>
<svg xmlns="http://www.w3.org/2000/svg" xmlns:xlink="http://www.w3.org/1999/xlink" viewBox="0 0 60 60" width="60px" height="60px">
<g id="surface64155671">
<path style=" stroke:none;fill-rule:nonzero;fill:rgb(18.82353%,18.82353%,18.82353%);fill-opacity:1;" d="M 30.007812 56.773438 C 29.292969 56.773438 28.578125 56.585938 27.953125 56.222656 L 21.402344 52.34375 C 20.421875 51.796875 20.898438 51.605469 21.222656 51.492188 C 22.527344 51.035156 22.792969 50.933594 24.183594 50.140625 C 24.328125 50.058594 24.519531 50.085938 24.671875 50.175781 L 29.703125 53.164062 C 29.886719 53.261719 30.144531 53.261719 30.3125 53.164062 L 49.933594 41.835938 C 50.113281 41.734375 50.234375 41.523438 50.234375 41.304688 L 50.234375 18.664062 C 50.234375 18.4375 50.113281 18.238281 49.929688 18.125 L 30.316406 6.808594 C 30.136719 6.699219 29.894531 6.699219 29.710938 6.808594 L 10.101562 18.125 C 9.914062 18.230469 9.792969 18.441406 9.792969 18.660156 L 9.792969 41.300781 C 9.792969 41.515625 9.910156 41.722656 10.097656 41.828125 L 15.46875 44.929688 C 18.386719 46.390625 20.171875 44.671875 20.171875 42.941406 L 20.171875 20.59375 C 20.171875 20.277344 20.421875 20.03125 20.738281 20.03125 L 23.226562 20.03125 C 23.535156 20.03125 23.789062 20.273438 23.789062 20.59375 L 23.789062 42.953125 C 23.789062 46.84375 21.667969 49.078125 17.980469 49.078125 C 16.84375 49.078125 15.953125 49.078125 13.457031 47.851562 L 8.308594 44.882812 C 7.035156 44.144531 6.25 42.769531 6.25 41.300781 L 6.25 18.660156 C 6.25 17.1875 7.035156 15.8125 8.308594 15.082031 L 27.949219 3.753906 C 29.191406 3.050781 30.84375 3.050781 32.078125 3.753906 L 51.695312 15.089844 C 52.957031 15.820312 53.75 17.191406 53.75 18.664062 L 53.75 41.308594 C 53.75 42.777344 52.957031 44.144531 51.691406 44.882812 L 32.074219 56.214844 C 31.445312 56.578125 30.734375 56.765625 30.007812 56.765625 "/>
<path style=" stroke:none;fill-rule:nonzero;fill:rgb(18.82353%,18.82353%,18.82353%);fill-opacity:1;" d="M 36.070312 41.171875 C 27.484375 41.171875 25.683594 37.230469 25.683594 33.925781 C 25.683594 33.609375 25.9375 33.359375 26.253906 33.359375 L 28.789062 33.359375 C 29.070312 33.359375 29.304688 33.5625 29.347656 33.839844 C 29.730469 36.421875 30.871094 37.726562 36.0625 37.726562 C 40.199219 37.726562 41.957031 36.792969 41.957031 34.597656 C 41.957031 33.335938 41.453125 32.398438 35.03125 31.769531 C 29.65625 31.238281 26.335938 30.054688 26.335938 25.757812 C 26.335938 21.796875 29.675781 19.441406 35.269531 19.441406 C 41.554688 19.441406 44.667969 21.621094 45.058594 26.308594 C 45.074219 26.46875 45.015625 26.625 44.90625 26.746094 C 44.800781 26.859375 44.648438 26.925781 44.488281 26.925781 L 41.941406 26.925781 C 41.675781 26.925781 41.445312 26.738281 41.390625 26.484375 C 40.777344 23.765625 39.292969 22.898438 35.261719 22.898438 C 30.746094 22.898438 30.222656 24.46875 30.222656 25.648438 C 30.222656 27.078125 30.839844 27.496094 36.929688 28.300781 C 42.960938 29.101562 45.828125 30.230469 45.828125 34.46875 C 45.828125 38.742188 42.261719 41.195312 36.042969 41.195312 "/>
</g>
</svg>
