<?xml version="1.0" encoding="UTF-8"?>
<svg xmlns="http://www.w3.org/2000/svg" xmlns:xlink="http://www.w3.org/1999/xlink" viewBox="0 0 60 60" width="60px" height="60px">
<g id="surface64017473">
<path style=" stroke:none;fill-rule:nonzero;fill:rgb(18.82353%,18.82353%,18.82353%);fill-opacity:1;" d="M 29.398438 2.398438 C 18.960938 2.398438 16.800781 7.789062 16.800781 10.914062 L 16.800781 16.800781 L 28.800781 16.800781 L 28.800781 18 L 10.914062 18 C 6.953125 18 2.398438 21.121094 2.398438 30 C 2.398438 38.878906 6.953125 42 10.914062 42 L 18 42 L 18 34.800781 C 18 32.160156 20.160156 30 22.800781 30 L 37.199219 30 C 39.238281 30 40.800781 28.4375 40.800781 26.398438 L 40.800781 10.914062 C 40.800781 6.710938 36.839844 2.398438 29.398438 2.398438 Z M 24 8.398438 C 25.320312 8.398438 26.398438 9.476562 26.398438 10.800781 C 26.398438 12.121094 25.320312 13.199219 24 13.199219 C 22.679688 13.199219 21.601562 12.121094 21.601562 10.800781 C 21.601562 9.476562 22.679688 8.398438 24 8.398438 Z M 42 18 L 42 26.398438 C 42 29.039062 39.839844 31.199219 37.199219 31.199219 L 22.800781 31.199219 C 20.761719 31.199219 19.199219 32.761719 19.199219 34.800781 L 19.199219 49.085938 C 19.199219 53.289062 23.160156 57.601562 30.601562 57.601562 C 41.039062 57.601562 43.199219 52.210938 43.199219 49.085938 L 43.199219 43.199219 L 31.199219 43.199219 L 31.199219 42 L 49.085938 42 C 53.046875 42 57.601562 38.878906 57.601562 30 C 57.601562 21.121094 53.046875 18 49.085938 18 Z M 36 46.800781 C 37.320312 46.800781 38.398438 47.878906 38.398438 49.199219 C 38.398438 50.523438 37.320312 51.601562 36 51.601562 C 34.679688 51.601562 33.601562 50.523438 33.601562 49.199219 C 33.601562 47.878906 34.679688 46.800781 36 46.800781 Z M 36 46.800781 "/>
</g>
</svg>
