<?xml version="1.0" encoding="UTF-8"?>
<svg xmlns="http://www.w3.org/2000/svg" xmlns:xlink="http://www.w3.org/1999/xlink" viewBox="0 0 60 60" width="60px" height="60px">
<g id="surface63968765">
<path style=" stroke:none;fill-rule:nonzero;fill:rgb(18.82353%,18.82353%,18.82353%);fill-opacity:1;" d="M 30 42.5 C 13.875 42.5 1.25 37 1.25 30 C 1.25 23 13.875 17.5 30 17.5 C 46.125 17.5 58.75 23 58.75 30 C 58.75 37 46.125 42.5 30 42.5 Z M 30 20 C 14.25 20 3.75 25.125 3.75 30 C 3.75 34.875 14.25 40 30 40 C 45.75 40 56.25 34.875 56.25 30 C 56.25 25.125 45.75 20 30 20 Z M 30 20 "/>
<path style=" stroke:none;fill-rule:nonzero;fill:rgb(18.82353%,18.82353%,18.82353%);fill-opacity:1;" d="M 18.875 55.75 C 17.625 55.75 16.625 55.5 15.625 54.875 C 9.5 51.375 11.125 37.75 19.125 23.75 C 22.875 17.25 27.5 11.75 32 8.25 C 36.875 4.5 41.25 3.375 44.25 5.125 C 47.375 6.875 48.5 11.25 47.75 17.375 C 47 23.125 44.5 29.875 40.75 36.375 C 37 42.875 32.375 48.375 27.875 51.875 C 24.625 54.375 21.5 55.75 18.875 55.75 Z M 41.125 6.75 C 39.125 6.75 36.5 7.875 33.625 10.125 C 29.375 13.5 25 18.75 21.375 25 C 13.5 38.625 12.75 50.375 16.875 52.75 C 19 54 22.5 52.875 26.375 49.875 C 30.625 46.5 35 41.25 38.625 35 C 42.25 28.75 44.625 22.375 45.375 17 C 46 12 45.25 8.5 43.125 7.25 C 42.5 7 41.875 6.75 41.125 6.75 Z M 41.125 6.75 "/>
<path style=" stroke:none;fill-rule:nonzero;fill:rgb(18.82353%,18.82353%,18.82353%);fill-opacity:1;" d="M 41.25 55.75 C 35 55.75 26 48.125 19.25 36.25 C 11.125 22.25 9.5 8.625 15.625 5.125 C 21.75 1.625 32.75 9.75 40.875 23.75 C 44.625 30.25 47.125 37 47.875 42.75 C 48.75 48.875 47.5 53.125 44.375 55 C 43.375 55.5 42.375 55.75 41.25 55.75 Z M 16.875 7.25 C 12.75 9.625 13.5 21.375 21.375 35 C 29.25 48.625 39 55.125 43.125 52.75 C 45.25 51.5 46 48 45.375 43 C 44.625 37.625 42.25 31.25 38.625 25 C 30.75 11.375 21 4.875 16.875 7.25 Z M 16.875 7.25 "/>
<path style=" stroke:none;fill-rule:nonzero;fill:rgb(18.82353%,18.82353%,18.82353%);fill-opacity:1;" d="M 35 30 C 35 32.761719 32.761719 35 30 35 C 27.238281 35 25 32.761719 25 30 C 25 27.238281 27.238281 25 30 25 C 32.761719 25 35 27.238281 35 30 Z M 35 30 "/>
</g>
</svg>
