<?xml version="1.0" standalone="no"?>
<!DOCTYPE svg PUBLIC "-//W3C//DTD SVG 20010904//EN"
 "http://www.w3.org/TR/2001/REC-SVG-20010904/DTD/svg10.dtd">
<svg version="1.0" xmlns="http://www.w3.org/2000/svg"
 width="1048.000000pt" height="1048.000000pt" viewBox="0 0 1048.000000 1048.000000"
 preserveAspectRatio="xMidYMid meet">
<metadata>
Created by potrace 1.14, written by Peter Selinger 2001-2017
</metadata>
<g transform="translate(0.000000,1048.000000) scale(0.100000,-0.100000)"
fill="#000000" stroke="none">
<path d="M5160 10459 c-19 -6 -87 -42 -151 -80 -65 -38 -121 -69 -125 -69 -4
0 -15 -6 -23 -14 -9 -7 -43 -28 -76 -46 -33 -18 -94 -52 -136 -76 -42 -24 -81
-44 -87 -44 -6 0 -12 -4 -14 -9 -1 -5 -19 -17 -38 -28 -35 -19 -246 -139 -278
-158 -39 -24 -82 -45 -88 -44 -4 0 -10 -4 -13 -9 -3 -5 -29 -23 -58 -38 -121
-68 -400 -229 -425 -246 -16 -11 -28 -16 -28 -12 0 4 -8 0 -17 -8 -17 -13 -53
-35 -143 -85 -84 -47 -183 -104 -242 -140 -21 -13 -38 -20 -38 -16 0 5 -4 3
-8 -3 -4 -6 -38 -28 -77 -49 -38 -21 -87 -49 -108 -62 -21 -13 -49 -28 -62
-33 -14 -5 -25 -15 -25 -21 0 -7 -3 -10 -6 -7 -3 3 -56 -23 -117 -59 -62 -36
-137 -79 -167 -95 -30 -17 -67 -40 -82 -50 -16 -11 -28 -16 -28 -13 0 4 -12
-3 -26 -14 -15 -11 -30 -18 -35 -15 -5 3 -9 1 -9 -4 0 -5 -15 -17 -32 -26 -18
-9 -40 -21 -48 -26 -51 -31 -259 -150 -263 -150 -3 0 -35 -18 -71 -40 -36 -22
-68 -40 -70 -40 -3 0 -39 -20 -79 -45 -41 -25 -80 -45 -86 -45 -6 0 -11 -4
-11 -10 0 -5 -4 -10 -9 -10 -5 0 -35 -15 -68 -34 -32 -18 -74 -42 -93 -52 -19
-10 -37 -21 -40 -24 -6 -6 -84 -49 -117 -64 -13 -6 -23 -14 -23 -18 0 -5 -6
-8 -13 -8 -7 0 -29 -11 -49 -25 -20 -14 -44 -25 -52 -25 -9 0 -16 -4 -16 -8 0
-4 -26 -21 -57 -37 -32 -17 -60 -32 -63 -35 -5 -5 -36 -23 -100 -57 -19 -10
-40 -24 -48 -30 -12 -12 -19 -14 -37 -13 -3 1 -12 -5 -19 -13 -7 -7 -60 -39
-117 -71 -57 -31 -120 -67 -139 -78 -19 -11 -57 -32 -84 -46 -68 -36 -141
-108 -168 -167 l-23 -50 -3 -2405 c-2 -1700 1 -2418 8 -2449 13 -51 60 -125
103 -161 35 -29 125 -82 179 -106 21 -9 38 -20 38 -25 0 -5 6 -9 13 -9 6 0 49
-23 95 -50 46 -28 87 -50 91 -50 5 0 14 -7 21 -15 7 -8 16 -12 21 -9 5 3 9 0
9 -5 0 -6 4 -11 9 -11 10 0 247 -135 268 -152 7 -6 13 -7 13 -3 0 5 8 1 18 -7
9 -8 42 -28 72 -44 30 -15 62 -33 70 -40 8 -6 38 -24 65 -39 28 -14 66 -36 85
-47 71 -42 136 -78 170 -95 19 -10 36 -21 38 -25 2 -5 7 -8 12 -8 7 0 151 -80
200 -111 8 -5 26 -15 40 -21 14 -7 27 -15 30 -18 5 -5 30 -19 95 -55 22 -12
63 -34 90 -50 28 -15 59 -33 70 -39 11 -6 22 -13 25 -17 3 -3 21 -13 40 -22
19 -10 51 -27 70 -38 156 -91 188 -109 198 -109 7 0 12 -4 12 -10 0 -5 4 -10
9 -10 5 0 47 -22 94 -50 47 -27 90 -50 96 -50 6 0 11 -4 11 -10 0 -5 6 -10 13
-11 6 0 32 -13 57 -29 25 -16 77 -45 115 -66 39 -20 72 -41 73 -45 2 -5 8 -9
13 -9 5 0 69 -34 140 -75 72 -41 135 -75 140 -75 5 0 9 -5 9 -12 0 -6 3 -8 7
-5 3 4 13 1 22 -6 9 -8 59 -38 111 -67 143 -80 200 -113 278 -159 29 -17 55
-31 57 -31 2 0 36 -19 77 -43 40 -24 93 -55 118 -69 211 -119 285 -162 288
-170 2 -4 12 -8 22 -8 11 0 23 -7 28 -16 5 -9 11 -14 13 -13 4 3 160 -80 169
-90 3 -3 23 -16 45 -28 65 -34 101 -55 265 -149 180 -104 205 -116 262 -119
53 -2 95 12 175 59 35 20 66 36 69 36 4 -1 10 2 13 7 7 9 4 7 195 115 77 43
143 78 147 78 4 0 9 3 11 8 3 7 27 21 123 72 33 18 62 35 65 39 3 3 23 16 45
28 22 11 58 31 80 44 22 12 65 36 95 53 30 16 57 33 58 38 2 4 7 8 12 8 8 0
75 37 225 124 39 22 72 41 75 41 3 0 17 8 33 18 49 31 72 44 77 45 9 1 174
100 188 112 6 6 12 8 12 5 0 -4 12 2 28 13 15 10 86 52 157 92 72 40 141 80
155 89 14 8 28 14 33 13 4 -1 7 2 7 7 0 5 9 12 20 16 21 7 127 68 147 85 7 5
19 10 28 10 8 0 15 5 15 10 0 6 7 10 15 10 8 0 15 5 15 10 0 6 3 9 8 8 6 -2
86 42 207 114 27 17 55 31 62 32 6 1 20 9 30 18 10 8 33 22 51 32 74 37 92 48
97 57 4 5 15 9 25 9 10 0 20 4 22 8 4 10 215 132 228 132 6 0 10 5 10 10 0 6
7 10 15 10 8 0 15 5 15 11 0 5 4 8 9 5 5 -3 20 3 34 14 14 11 27 20 29 20 4 0
89 48 368 208 59 33 128 72 166 92 16 9 44 26 62 39 18 12 32 20 32 17 0 -3
25 10 55 29 30 19 58 35 63 35 5 0 19 9 32 20 13 11 29 20 36 20 7 0 19 6 26
13 7 6 31 21 53 32 22 11 42 23 45 26 5 6 116 69 160 91 14 7 28 17 32 23 4 5
8 6 8 1 0 -5 8 -2 17 6 16 14 54 35 246 142 138 76 191 124 233 211 19 39 19
89 19 2480 0 2372 -1 2441 -19 2475 -21 39 -69 90 -85 90 -6 0 -11 4 -11 9 0
5 -8 11 -17 14 -10 3 -45 22 -78 41 -63 37 -177 101 -235 132 -19 11 -40 25
-48 32 -7 6 -20 12 -28 12 -8 0 -14 5 -14 11 0 5 -4 7 -10 4 -5 -3 -10 -2 -10
3 0 5 -8 12 -17 15 -18 6 -64 32 -156 88 -26 16 -52 29 -57 29 -6 0 -10 5 -10
11 0 5 -4 8 -9 4 -5 -3 -12 -1 -15 4 -3 5 -24 18 -45 29 -58 30 -84 46 -101
58 -8 7 -40 24 -70 40 -30 15 -62 33 -70 39 -8 7 -44 27 -80 46 -36 18 -67 36
-70 39 -3 4 -30 20 -60 37 -30 16 -91 50 -135 75 -44 25 -96 54 -115 64 -19
11 -37 21 -40 25 -3 3 -24 15 -47 26 -62 32 -87 47 -93 55 -3 4 -17 12 -30 17
-14 6 -32 15 -40 21 -24 16 -400 230 -405 230 -2 0 -24 14 -48 30 -25 17 -48
30 -52 30 -4 0 -19 9 -35 20 -15 11 -30 17 -34 13 -3 -3 -6 -2 -6 4 0 5 -28
24 -62 42 -35 18 -76 41 -93 51 -16 11 -46 27 -65 37 -19 9 -37 20 -40 23 -3
4 -12 10 -20 13 -8 4 -42 23 -75 42 -33 19 -72 41 -87 47 -16 7 -28 15 -28 19
0 4 -15 12 -32 20 -18 7 -35 15 -38 18 -3 3 -14 11 -25 17 -89 49 -149 83
-204 116 -34 21 -64 38 -66 38 -1 0 -53 29 -114 65 -62 36 -116 65 -122 65 -5
0 -9 4 -9 9 0 5 -8 11 -17 14 -21 7 -118 61 -180 100 -24 15 -45 27 -47 27 -3
0 -38 19 -78 43 -169 101 -224 131 -238 134 -8 1 -16 7 -18 12 -2 6 -10 11
-18 11 -8 0 -14 4 -14 8 0 4 -16 14 -35 21 -19 7 -35 17 -35 22 0 5 -4 9 -9 9
-5 0 -48 23 -96 50 -48 28 -89 50 -91 50 -2 0 -21 11 -42 24 -65 41 -177 104
-183 102 -4 0 -15 6 -25 15 -67 59 -204 92 -284 68z"/>
</g>
</svg>
